<svg xmlns="http://www.w3.org/2000/svg" viewBox="0 0 750 197.369">
  <defs>
    <style>
      .cls-1 {
        fill: #bcc9e0;
      }

      .cls-1, .cls-2 {
        fill-rule: evenodd;
      }

      .cls-2 {
        fill: #c48d5c;
      }
    </style>
  </defs>
  <g id="Layer_2" data-name="Layer 2">
    <g id="OBJECTS">
      <path class="cls-1" d="M738.591,73.505c-4.8-16.865-11.651-39.533-11.6-42.7-.023.006-.05.013-.073.017.433-.951.205-4.6.088-5.726a58.65,58.65,0,0,0-1.492-8.029c-.364-1.415-3.079-4.77-4.742-5.35a6.58,6.58,0,0,0-3.853-.031c-1.1.142-2.188-.485-3.311-.566-1-.072-1.758.825-2.692,1.088-1-1.708-5.263-1.8-6.152.3-1.526-.18-3.457-.142-4.663,1.714-.936,1.442.066,4.92.794,6.976a18.77,18.77,0,0,0-.9,3.844c-.178,1.281-.829,4.664.145,5.49a65.537,65.537,0,0,0,8.219,5.307c.061.04.116.091.178.127.3.175.624.339.956.495.064.031.124.068.188.1l-.024.01c2.739,2.229,5.634,30.761,7,47.306q-5.217,2.37-10.481,4.673c-2.292-9.616-5.05-20.605-4.922-22.681l-.055.011a14.2,14.2,0,0,0,.25-4.114,42.757,42.757,0,0,0-.813-5.821,8.237,8.237,0,0,0-3.237-4,4.733,4.733,0,0,0-2.768-.145,12.674,12.674,0,0,1-2.362-.514c-.717-.085-1.292.536-1.971.7-.658-1.261-3.724-1.463-4.432.016a3.193,3.193,0,0,0-3.406,1.083c-.72,1.007-.112,3.538.346,5.04a13.44,13.44,0,0,0-.771,2.735c-.169.914-.747,3.325-.073,3.951a47.4,47.4,0,0,0,5.741,4.082c.041.03.077.066.119.094.209.133.433.261.664.382.047.027.091.057.138.081l-.016.007c1.847,1.646,1.518,3.431,1.93,12.827.067,1.548.1,3.017.122,4.462a1.237,1.237,0,0,0-.079-.1l-10.809-9.13c.568-1.322.994-2.5,1.213-3.137a8.311,8.311,0,0,0-.732-5.144,4.784,4.784,0,0,0-2.324-1.563c-.722-.352-1.133-1.171-1.782-1.669-.578-.446-1.4-.2-2.068-.42a2.34,2.34,0,0,0-1.021-1.763L669.2,52.155c7.794-4.906,12.863-.109,21.177-4.727-.273-4.318-1.822-9.447-4.6-15.357-10.953,4.559-16.27.806-22.2,3.135a.642.642,0,0,0-.779-.4.633.633,0,0,0-.378.815l9.1,27.465a1.748,1.748,0,0,0-1.288.213,3.224,3.224,0,0,0-3.514-.827A4.519,4.519,0,0,0,665,65.034L604.56,13.982a1.359,1.359,0,0,0-1.76,2.072l5.179,4.375c-8.955,10.072-6.746,23.306-24.713,41.451,9.088,9.909,17.724,16.8,25.884,20.527,15.95-13.022,11.4-26.489,26.827-38.33l27.78,23.464a15.881,15.881,0,0,0-1.441,1.448c-.62.706-2.372,2.5-2.111,3.388a47.476,47.476,0,0,0,2.856,6.508c.021.05.035.1.059.152.113.229.244.459.385.689.024.042.046.088.071.13l-.019,0c.486,1.549-3.214,9.52-7.466,17.844l-9.219-9.715c3.826-5.967,8.929-4.294,13.211-10.235a33.96,33.96,0,0,0-8.233-9.2c-6.143,6.765-11.081,5.89-14.454,9.457a.492.492,0,0,0-.673-.024.484.484,0,0,0,0,.692L655.631,98.6c-1.728,3.361-3.521,6.74-5.148,9.75-1.978-4.576-3.981-9.181-4.095-10.2l-.03.011a8.067,8.067,0,0,0-.259-2.32,24.183,24.183,0,0,0-1.019-3.167,4.663,4.663,0,0,0-2.193-1.916,2.678,2.678,0,0,0-1.558.188,7.111,7.111,0,0,1-1.367-.058c-.408.022-.668.425-1.031.579-.491-.639-2.22-.454-2.471.44a1.806,1.806,0,0,0-1.8.933c-.3.632.281,1.984.682,2.777a7.458,7.458,0,0,0-.164,1.6c-.006.526-.094,1.928.341,2.211a27.256,27.256,0,0,0,3.639,1.737c.013.006.022.018.035.024.158.066.327.123.5.176l-.016.01c1.188.739,1.178,1.767,2.32,6.967.367,1.674.641,3.2.9,4.776q-2.758.944-5.526,1.869c-1.662-2.613-2.081-3.5-1.764-4.825l-.014,0c.018-.036.034-.074.051-.11.093-.18.179-.359.253-.537.014-.034.021-.071.033-.107a36.551,36.551,0,0,0,1.844-5.123c.152-.693-1.276-1.967-1.787-2.472a10.358,10.358,0,0,0-1.693-1.4c-.372-1.154-1.1-3.026-2-3.347a2.464,2.464,0,0,0-2.636.814c-1.1-.627-2.955.853-2.818,1.941-.5.2-1.138.058-1.556.427-.469.415-.739,1.06-1.272,1.366a3.657,3.657,0,0,0-1.69,1.313,6.356,6.356,0,0,0-.291,3.96,32.764,32.764,0,0,0,2.048,4.05,11.028,11.028,0,0,0,1.971,2.5l-.04.017a28.89,28.89,0,0,1,2.146,4.565c-2.234.719-4.478,1.418-6.72,2.12-1.2-6.8-2.479-14.029-2.387-14.969l-.028.005a7.281,7.281,0,0,0,.2-2.1,21.379,21.379,0,0,0-.308-3,4.222,4.222,0,0,0-1.582-2.107,2.431,2.431,0,0,0-1.415-.126,6.5,6.5,0,0,1-1.2-.308c-.366-.056-.671.252-1.022.321-.314-.658-1.88-.819-2.27-.075a1.637,1.637,0,0,0-1.763.492c-.388.5-.123,1.809.083,2.586a6.907,6.907,0,0,0-.445,1.386c-.1.465-.445,1.689-.112,2.022a24.738,24.738,0,0,0,2.9,2.222c.008.007.014.019.023.025a4.621,4.621,0,0,0,.422.245l-.029.011c.915.877.713,1.785.751,6.6.013,1.811.209,5.411.386,9.164q-1.791.544-3.586,1.077l-.3-14.566a.485.485,0,0,0-.485-.494.493.493,0,0,0-.461.492c-4.907-.168-7.806,3.925-16.929,3.431a33.94,33.94,0,0,0,.61,12.331c7.221,1.217,9.676-3.561,16.592-2l.022,1.095q-6.454,1.916-12.946,3.742c-3.489-1.242-6.23-2.387-6.691-3.039-.03-.054-.074-.1-.106-.156a5.919,5.919,0,0,0-.527-.77c-.009-.011-.025-.018-.034-.028a28.793,28.793,0,0,0-2.87-3.161c-.42-.355-1.813.16-2.344.326-.312.1-.627.212-.931.34l-4.694-14.166c10.173-6.4,16.789-.141,27.64-6.17-.355-5.633-2.379-12.331-6-20.043-14.3,5.953-21.243,1.02-28.994,4.072a.8.8,0,1,0-1.5.558l11.9,35.926a2.987,2.987,0,0,0-2.024.29,1.917,1.917,0,0,0-.4,2.1c-.83.526-.49,2.335.306,2.637-.046.416-.374.8-.272,1.223.113.473.457.893.473,1.369a2.849,2.849,0,0,0,.284,1.637,4.066,4.066,0,0,0,1.47,1.2c-1.3.34-2.6.665-3.9,1-1.476-7.291-2.9-14.371-2.754-15.9l-.049.008a12.646,12.646,0,0,0,.354-3.637,37.242,37.242,0,0,0-.535-5.183,7.289,7.289,0,0,0-2.738-3.644,4.2,4.2,0,0,0-2.447-.22,11.138,11.138,0,0,1-2.075-.53c-.634-.1-1.161.434-1.769.553-.544-1.138-3.252-1.417-3.927-.127a2.826,2.826,0,0,0-3.051.849c-.67.868-.213,3.131.143,4.477a11.9,11.9,0,0,0-.77,2.4c-.179.8-.768,2.921-.192,3.5a42.139,42.139,0,0,0,4.951,3.8c.037.029.069.064.107.09.183.127.38.249.584.365.038.023.074.049.111.071l-.015.006c1.583,1.516,1.235,3.087,1.3,11.424.013,1.709-.011,3.311-.059,4.9-.963.232-1.924.468-2.888.7a3.317,3.317,0,0,1-.559-2.647l-.013,0c.017-.034.032-.071.049-.1.083-.16.159-.32.224-.479.006-.013,0-.031.01-.045a33.62,33.62,0,0,0,1.682-4.668c.136-.625-1.151-1.774-1.61-2.23a9.381,9.381,0,0,0-1.527-1.257c-.335-1.039-.992-2.727-1.8-3.016-.046-.017-.089-.022-.134-.035L554,104.325a.362.362,0,0,0-.422-.3.366.366,0,0,0-.275.422c-3.635.523-5.23,3.916-12.013,4.753a25.373,25.373,0,0,0,2.071,9c5.477-.053,6.655-3.892,11.952-3.657l1.514,7.59a2.706,2.706,0,0,0-1.5.833c-.991-.566-2.663.767-2.539,1.749-.452.179-1.026.052-1.4.385-.422.374-.666.955-1.145,1.23a3.318,3.318,0,0,0-1.524,1.184,5.718,5.718,0,0,0-.262,3.569,29.426,29.426,0,0,0,1.845,3.65,9.918,9.918,0,0,0,1.777,2.251l-.037.016a9.758,9.758,0,0,1,.857,1.61c-1.677.38-3.35.77-5.029,1.142-1.928-6.828-3.6-13.028-3.736-14.257l-.042.017a11.56,11.56,0,0,0-.37-3.306,34.511,34.511,0,0,0-1.452-4.515,6.641,6.641,0,0,0-3.126-2.731,3.818,3.818,0,0,0-2.221.267,10.2,10.2,0,0,1-1.949-.082c-.582.032-.953.6-1.471.825-.7-.91-3.164-.648-3.521.627a2.578,2.578,0,0,0-2.559,1.332c-.433.9.4,2.828.972,3.958a10.941,10.941,0,0,0-.236,2.281c-.006.751-.132,2.747.49,3.151a38.212,38.212,0,0,0,5.133,2.455c.036.017.068.041.1.055.186.078.381.149.583.214.04.014.079.031.119.045l-.013.008c1.685,1.046,1.683,2.5,3.279,9.793a9.187,9.187,0,0,1-2.861-1.764,9.275,9.275,0,0,0-.646-.994c-.149-.216-.3-.423-.461-.615-.03-.036-.068-.066-.1-.1a47.776,47.776,0,0,0-4.795-5.276c-.707-.6-3.056.268-3.953.548a16.692,16.692,0,0,0-1.569.574l-7.913-23.88c17.15-10.8,28.3-.239,46.6-10.4-.6-9.5-4.009-20.787-10.11-33.79-24.108,10.033-35.806,1.723-48.869,6.86a1.412,1.412,0,0,0-1.7-.849,1.392,1.392,0,0,0-.834,1.8l20.069,60.563c-1.342-.125-2.777-.091-3.413.489a3.228,3.228,0,0,0-.675,3.547c-1.4.888-.828,3.937.515,4.447-.077.7-.631,1.351-.46,2.061.192.795.771,1.5.8,2.306.006.17,0,.34,0,.514-.823.153-1.646.308-2.471.458-.518-5.943-.825-10.645-.546-12l-.066,0c.528-.752.921-3.945,1-4.943a51.834,51.834,0,0,0,.011-7.193c-.086-1.282-1.892-4.627-3.239-5.4a5.794,5.794,0,0,0-3.329-.653c-.971-.053-1.814-.773-2.773-1.025-.857-.226-1.656.429-2.507.5-.584-1.64-4.264-2.411-5.374-.738-1.291-.4-2.97-.682-4.312.728-1.045,1.1-.742,4.27-.445,6.167a16.41,16.41,0,0,0-1.4,3.182c-.314.935-1.189,3.178-.954,4.328a12.661,12.661,0,0,1-3.373-.108,89.823,89.823,0,0,0,1.028-17.926c-19.217-.261-24.691-9.291-35.019-9.63a.993.993,0,1,0-1.983-.1l-4.122,46.763a3.7,3.7,0,0,0-2.447-.665,2.1,2.1,0,0,0-.57.306c-1.681-13.777-4.595-34.046-4.155-36.626l-.06,0c.451-.68.709-3.537.754-4.427a46.158,46.158,0,0,0-.2-6.4c-.112-1.14-1.816-4.064-3.037-4.712a5.166,5.166,0,0,0-2.981-.485,13.624,13.624,0,0,1-2.5-.833c-.768-.176-1.461.429-2.217.521-.567-1.443-3.863-2.023-4.8-.5a3.478,3.478,0,0,0-3.817.771c-.9,1.007-.537,3.82-.218,5.5a14.786,14.786,0,0,0-1.157,2.873c-.29.971-1.2,3.515-.543,4.272a51.379,51.379,0,0,0,5.738,5.095c.041.038.077.083.121.119.213.171.444.337.684.5.044.031.086.067.131.1l-.02.006c.846.936,1.065,6.106.966,12.683-8.892-6.539-10.172-13.017-16.307-16.617a.789.789,0,0,0-1.345-.823l-16.664,24.8c-.422-.579-.919-1.1-1.371-1.162a1.885,1.885,0,0,0-1.842,1.028c-.923-.294-2.075,1.108-1.8,1.9-.344.228-.843.223-1.1.567-.284.384-.384.909-.733,1.223a2.8,2.8,0,0,0-1.057,1.252,4.87,4.87,0,0,0,.412,3.008c.225.322.654.915,1.184,1.567l-4.613,6.866a.795.795,0,0,0,1.322.883l4.377-6.516a7.8,7.8,0,0,0,1.778,1.46l-.026.019c.962.8,5.7,8.185,9.669,14.213q-13.013.714-26.039,1.056c2.211-9.606,4.455-19.538,5.473-21.3l-.059-.016c.658-.481,1.887-3.067,2.239-3.884a46.1,46.1,0,0,0,2.03-6.062c.288-1.107-.294-4.433-1.213-5.462a5.146,5.146,0,0,0-2.624-1.486c-.8-.318-1.313-1.162-2.051-1.645-.658-.429-1.517-.1-2.255-.279-.032-1.545-2.917-3.23-4.324-2.131a3.471,3.471,0,0,0-3.841-.6c-1.19.632-1.825,3.392-2.108,5.075a14.658,14.658,0,0,0-2.077,2.289c-.607.809-2.34,2.876-1.986,3.812a51.5,51.5,0,0,0,3.611,6.76c.024.048.042.1.07.148.138.232.294.465.461.695.032.048.061.1.094.147l-.02,0c1,2.5-.185,4.075-4.339,13.425-1.724,3.878-3.4,7.191-5.267,10.822-1.366.01-2.732.025-4.1.028a59.559,59.559,0,0,1,1.057-8.26l-.032,0a8.335,8.335,0,0,0,.912-2.231,24.712,24.712,0,0,0,.643-3.375,4.8,4.8,0,0,0-1.039-2.822,2.778,2.778,0,0,0-1.505-.6c-.452-.111-.784-.524-1.211-.727-.382-.182-.816.053-1.222.013-.129-.821-1.787-1.509-2.457-.823a1.867,1.867,0,0,0-2.089-.042c-.588.423-.727,1.939-.756,2.857a7.817,7.817,0,0,0-.941,1.369c-.265.473-1.039,1.7-.783,2.173a28.252,28.252,0,0,0,2.438,3.375c.009.011.012.027.021.039.111.137.236.273.367.407h-.02c.712,1.258.195,2.183-1.343,7.464-.115.4-.233.779-.35,1.159q-2.793-.02-5.587-.054c-.821-.809-1.635-1.633-2.486-2.543-3.7-3.965-4.573-4.55-4.5-5.974l-.013.005a5.451,5.451,0,0,0,.1-.57c0-.014,0-.027,0-.04a27.84,27.84,0,0,0,.25-4.1c-.037-.53-1.329-1.143-1.8-1.4a7.749,7.749,0,0,0-1.507-.644c-.039-.058-.081-.119-.125-.18l5.723-14.487a28.152,28.152,0,0,1,4.816.411,27.97,27.97,0,0,0,5.294,3.159,1.75,1.75,0,0,0,.055,1.707l-.009.021c2.511,2.512,9.972,7.66,11.915,3.02l3.656-8.734c-1.4.708-3.568.1-5.709-.988a89.67,89.67,0,0,0,6.644-16.681c-18.149-6.324-20.487-16.621-30.177-20.208a1.033,1.033,0,0,0-.512-1.3,1.022,1.022,0,0,0-1.337.575l-18.7,43.061c-.676-.727-1.479-1.412-2.113-1.405a2.371,2.371,0,0,0-2.109,1.614c-1.2-.2-2.385,1.753-1.9,2.692-.387.347-1.009.431-1.264.9-.284.531-.314,1.2-.693,1.657a3.54,3.54,0,0,0-1.09,1.75,6.121,6.121,0,0,0,1.057,3.673c.425.452,1.33,1.384,2.386,2.3l-2.061,4.747a1.049,1.049,0,0,0,.492,1.386,1.024,1.024,0,0,0,1.338-.576l1.859-4.281c.309.215.646.439.96.625.954,2.266,2.342,5.975,3.831,10.013q-14.538-.638-29.023-1.736c3.945-4.941,8.112-10.194,10.457-12.869.33-.072.691-.166,1.03-.265l.489,4.625a1.023,1.023,0,0,0,1.087.97,1.048,1.048,0,0,0,.9-1.159l-.541-5.119c1.326-.544,2.519-1.162,3.077-1.462a6.116,6.116,0,0,0,2.165-3.152,3.534,3.534,0,0,0-.481-2,9.218,9.218,0,0,1-.134-1.791c-.092-.53-.656-.807-.913-1.257.758-.737.255-2.964-.95-3.155a2.375,2.375,0,0,0-1.491-2.2c-.675-.232-1.83.3-2.77.847l-7.407-70.106c.032-.222.06-.44.094-.663-.056,0-.109,0-.165,0l-.1-.935a1.025,1.025,0,0,0-1.088-.97,1.049,1.049,0,0,0-.905,1.16l.088.831c-9.591.949-15.366,9.3-33.839,9.549-.324,10.563.667,19.183,3.035,25.774,15.086,1.5,19.631-8.547,33.831-6.677l4.488,42.467c-.3.012-.6.033-.895.064-.687.072-2.528.171-2.83.784a34.86,34.86,0,0,0-1.694,4.954.973.973,0,0,0-.042.106c-.052.178-.1.367-.134.559a7.085,7.085,0,0,0-.144.848c-.418,1.584-6.527,7.232-12.393,12.345l-.677-12.389a.566.566,0,0,0-.6-.536.56.56,0,0,0-.518.478c-3.808-1.287-11.289-2.751-12.887.719a.078.078,0,0,1-.016,0c-.013.041-.023.1-.035.144a3.64,3.64,0,0,0-.264,1.467l.032,1.441a19.88,19.88,0,0,1-8.087,1.3c.235-1.15-.639-3.393-.952-4.33a16.492,16.492,0,0,0-1.4-3.181c.3-1.9.6-5.07-.444-6.166-1.343-1.41-3.022-1.131-4.313-.729-1.111-1.673-4.791-.9-5.373.738-.851-.076-1.652-.731-2.508-.5-.958.253-1.8.972-2.774,1.026a5.8,5.8,0,0,0-3.329.652c-1.347.772-3.152,4.117-3.238,5.4a51.821,51.821,0,0,0,.011,7.192c.083,1,.474,4.189,1,4.944l-.065,0a22.985,22.985,0,0,1,.021,4.312c-.462-.064-.923-.133-1.385-.2a2.12,2.12,0,0,0-.805-1.9,3.221,3.221,0,0,0-.676-3.545c-.635-.581-2.07-.616-3.412-.491l20.069-60.562a1.391,1.391,0,0,0-.834-1.8,1.412,1.412,0,0,0-1.706.849c-13.061-5.137-24.76,3.171-48.868-6.862-6.1,13-9.512,24.292-10.11,33.791,18.293,10.162,29.446-.393,46.6,10.4l-7.913,23.879a16.6,16.6,0,0,0-1.569-.575c-.9-.279-3.246-1.148-3.954-.549a40.867,40.867,0,0,0-4.3,4.688c-1.191-.2-2.381-.4-3.571-.6.72-3.362,1.048-4.361,2.286-5.131l-.012-.007c.039-.013.079-.031.119-.044.2-.066.4-.136.582-.214.037-.016.07-.039.106-.057a38.119,38.119,0,0,0,5.131-2.453c.622-.4.5-2.4.489-3.151a10.891,10.891,0,0,0-.235-2.282c.571-1.129,1.405-3.058.972-3.959a2.579,2.579,0,0,0-2.559-1.331c-.358-1.275-2.822-1.537-3.521-.627-.519-.219-.888-.793-1.471-.825a10.12,10.12,0,0,1-1.949.081,3.821,3.821,0,0,0-2.221-.265,6.632,6.632,0,0,0-3.125,2.73,34,34,0,0,0-1.453,4.516,11.525,11.525,0,0,0-.37,3.3l-.042-.016c-.094.841-.907,4.015-2.029,8.118-1.066-.191-2.128-.4-3.193-.595.412-.815.73-1.537.9-1.935a5.735,5.735,0,0,0-.262-3.57,3.291,3.291,0,0,0-1.524-1.182c-.48-.277-.723-.858-1.146-1.232-.377-.333-.951-.206-1.4-.384.123-.983-1.548-2.316-2.539-1.75a2.711,2.711,0,0,0-1.5-.832l1.514-7.59c5.3-.237,6.475,3.6,11.952,3.657a25.4,25.4,0,0,0,2.071-9c-6.783-.836-8.378-4.23-12.013-4.752a.369.369,0,0,0-.275-.423.365.365,0,0,0-.423.3l-3.565,17.87c-.045.013-.088.018-.134.034-.811.289-1.468,1.978-1.8,3.018a9.316,9.316,0,0,0-1.526,1.256c-.459.455-1.747,1.6-1.61,2.229a14.663,14.663,0,0,0,.565,1.829c-.705-.141-1.409-.287-2.114-.43.033-7.5-.227-9.019,1.292-10.474l-.015-.006c.036-.021.072-.047.108-.069.205-.117.4-.24.588-.367.04-.028.073-.064.111-.094a42,42,0,0,0,4.946-3.8c.577-.575-.012-2.693-.192-3.5a11.916,11.916,0,0,0-.77-2.4c.357-1.345.814-3.607.144-4.476a2.831,2.831,0,0,0-3.052-.849c-.674-1.289-3.383-1.011-3.926.127-.608-.118-1.135-.65-1.769-.553a11.007,11.007,0,0,1-2.075.531,4.2,4.2,0,0,0-2.448.219,7.3,7.3,0,0,0-2.738,3.645,37.573,37.573,0,0,0-.534,5.183,12.678,12.678,0,0,0,.353,3.635l-.048-.008c.114,1.164-.683,5.533-1.721,10.762q-1.385-.3-2.769-.608a3.191,3.191,0,0,1-.211-.677c.8-.3,1.136-2.111.305-2.638a1.912,1.912,0,0,0-.4-2.1,2.985,2.985,0,0,0-2.024-.29l11.905-35.926a.8.8,0,1,0-1.5-.559c-7.75-3.051-14.69,1.882-29-4.072-3.619,7.713-5.642,14.41-6,20.045,10.851,6.027,17.468-.234,27.641,6.169l-4.694,14.166c-.3-.129-.619-.244-.931-.341-.532-.166-1.926-.681-2.345-.326a28.752,28.752,0,0,0-2.867,3.159c-.011.012-.027.019-.037.03a5.977,5.977,0,0,0-.529.774c-.023.038-.054.072-.075.11-.942-.223-1.886-.439-2.826-.666a35.977,35.977,0,0,0,.384-11.418c-9.124.5-12.021-3.6-16.929-3.43a.494.494,0,0,0-.462-.492.487.487,0,0,0-.485.495l-.209,10.342q-1.738-.462-3.474-.932c.1-2.125.181-3.955.189-5.085.038-4.82-.164-5.727.751-6.6l-.029-.011a4.621,4.621,0,0,0,.422-.245c.01-.006.016-.018.026-.026a24.592,24.592,0,0,0,2.9-2.221c.333-.333-.006-1.556-.11-2.021a6.859,6.859,0,0,0-.446-1.385c.206-.777.471-2.086.084-2.589a1.639,1.639,0,0,0-1.764-.49c-.391-.744-1.956-.584-2.27.074-.351-.069-.656-.377-1.022-.32a6.371,6.371,0,0,1-1.2.306,2.437,2.437,0,0,0-1.414.127,4.221,4.221,0,0,0-1.583,2.108,21.6,21.6,0,0,0-.309,3,7.269,7.269,0,0,0,.2,2.1l-.029,0c.076.768-.767,5.751-1.733,11.26q-2.974-.837-5.942-1.7a8,8,0,0,1,.714-1.282l-.041-.018a10.934,10.934,0,0,0,1.972-2.5,32.415,32.415,0,0,0,2.048-4.049,6.356,6.356,0,0,0-.291-3.96,3.655,3.655,0,0,0-1.691-1.312c-.532-.307-.8-.951-1.271-1.366-.418-.37-1.055-.228-1.556-.428.137-1.088-1.717-2.567-2.817-1.94a2.469,2.469,0,0,0-2.637-.815c-.9.321-1.629,2.194-2,3.348A10.4,10.4,0,0,0,104,116.077c-.51.5-1.938,1.78-1.787,2.472a36.391,36.391,0,0,0,1.841,5.115c.013.038.02.078.035.115.075.18.162.362.257.542.016.036.031.072.048.106l-.014,0a2.989,2.989,0,0,1-.128,1.889c-2.2-.671-4.409-1.343-6.606-2.034.107-.546.221-1.1.347-1.675,1.141-5.2,1.131-6.229,2.321-6.967l-.017-.011a5.06,5.06,0,0,0,.5-.176c.012-.005.021-.016.034-.022a27.212,27.212,0,0,0,3.64-1.738c.437-.284.348-1.685.343-2.211a7.565,7.565,0,0,0-.165-1.6c.4-.793.986-2.146.682-2.778a1.809,1.809,0,0,0-1.795-.934c-.251-.894-1.98-1.078-2.47-.439-.364-.155-.624-.557-1.032-.579a7.27,7.27,0,0,1-1.367.057,2.674,2.674,0,0,0-1.558-.186,4.656,4.656,0,0,0-2.193,1.915A24.08,24.08,0,0,0,93.9,110.1a8.071,8.071,0,0,0-.259,2.32l-.03-.012c-.107.961-1.883,5.087-3.739,9.378-.322-.1-.646-.2-.967-.309-1.46-2.713-3.023-5.67-4.537-8.617l18.906-19.923a.487.487,0,0,0,0-.693.493.493,0,0,0-.674.025c-3.374-3.568-8.311-2.693-14.454-9.457a33.933,33.933,0,0,0-8.232,9.2c4.281,5.941,9.383,4.268,13.21,10.235L83.9,111.964c-4.251-8.324-7.952-16.294-7.466-17.844l-.018,0c.026-.045.049-.093.075-.139.139-.226.267-.454.379-.679.023-.046.036-.1.056-.145a47.793,47.793,0,0,0,2.861-6.515c.259-.892-1.492-2.682-2.112-3.388a15.953,15.953,0,0,0-1.432-1.44l34.175-28.845c15.3,11.821,10.8,25.256,26.717,38.247,8.161-3.731,16.8-10.618,25.885-20.527-17.9-18.078-15.773-31.284-24.615-41.341l3.821-3.226a1.359,1.359,0,1,0-1.759-2.072L75,79.315a4.539,4.539,0,0,0-1.719-2.579,3.227,3.227,0,0,0-3.514.83,1.736,1.736,0,0,0-1.287-.214l9.1-27.465a.633.633,0,0,0-.379-.816.641.641,0,0,0-.779.4c-5.934-2.33-11.253,1.424-22.206-3.135-2.772,5.909-4.322,11.04-4.594,15.356C57.933,66.314,63,61.517,70.8,66.422L66.931,78.084a2.334,2.334,0,0,0-1.019,1.764c-.672.215-1.491-.027-2.07.419-.648.5-1.059,1.317-1.781,1.67A4.778,4.778,0,0,0,59.737,83.5,8.316,8.316,0,0,0,59,88.644c.22.634.647,1.817,1.216,3.141L49.409,100.91c-.034.03-.049.071-.08.1.018-1.446.055-2.915.123-4.463.412-9.4.084-11.182,1.93-12.827l-.017-.007c.043-.023.085-.052.128-.076.235-.123.462-.252.674-.388.045-.028.084-.067.127-.1a47.04,47.04,0,0,0,5.734-4.078c.674-.625.1-3.036-.073-3.951a13.431,13.431,0,0,0-.771-2.734c.457-1.5,1.065-4.032.345-5.039a3.192,3.192,0,0,0-3.406-1.083c-.707-1.481-3.772-1.278-4.431-.018-.68-.158-1.253-.779-1.971-.694a12.525,12.525,0,0,1-2.362.512,4.752,4.752,0,0,0-2.768.147,8.237,8.237,0,0,0-3.237,4,42.417,42.417,0,0,0-.813,5.82,14.239,14.239,0,0,0,.25,4.114l-.055-.011c.119,1.95-2.307,11.765-4.5,20.92-.33-.139-.663-.272-.992-.411C34.534,84.268,37.7,51.52,40.684,49.091l-.025-.011c.066-.032.129-.07.193-.1.342-.161.673-.329.984-.51.063-.036.118-.087.179-.128a67.642,67.642,0,0,0,8.471-5.469c1-.85.332-4.336.149-5.655a19.24,19.24,0,0,0-.927-3.959c.75-2.119,1.782-5.7.817-7.188-1.24-1.91-3.23-1.95-4.8-1.765-.917-2.163-5.313-2.069-6.337-.31-.962-.27-1.742-1.194-2.774-1.12-1.157.084-2.282.73-3.41.582a6.794,6.794,0,0,0-3.969.032c-1.714.6-4.511,4.053-4.885,5.51a60.693,60.693,0,0,0-1.538,8.273c-.119,1.164-.355,4.92.091,5.9l-.075-.019c.057,3.464-7.908,29.585-12.838,47.141Q4.973,87.945,0,85.523V197.369H750V67.776Q744.332,70.686,738.591,73.505Zm-69.806-22.6-4.271-12.892A34.488,34.488,0,0,1,668.785,50.908ZM646.172,87.244l-7.2-7.592A26.607,26.607,0,0,1,646.172,87.244Zm-37.307,24.079.212,10.465A26.624,26.624,0,0,1,608.865,111.323Zm-55.238-5.2,1.531,7.676A19.873,19.873,0,0,1,553.627,106.118ZM283.884,72.267l1.066,10.085A54.052,54.052,0,0,1,283.884,72.267ZM101.023,93.922l-7.2,7.587A26.585,26.585,0,0,1,101.023,93.922ZM75.481,52.28l-4.273,12.9A34.5,34.5,0,0,1,75.481,52.28Zm615.2,36.329c0,2.125-.027,4.246-.059,6.531-1.631.673-3.255,1.356-4.892,2.018l-2.655-13.3,5.753,4.859A1.354,1.354,0,0,0,690.678,88.609Zm-14.3-5.308-.054-.02a13.2,13.2,0,0,0,2.238-3.232l3.04,2.568c-2.188.487-3.693,2.019-6.332,3.236A15.291,15.291,0,0,1,676.381,83.3Zm-4.435,12.535c.067.149.13.305.2.448,5.478-.053,6.656-3.892,11.953-3.657l.958,4.8q-7.707,3.109-15.51,6.057C670.366,100.856,671.179,98.256,671.946,95.836Zm10.471-11.63,1.531,7.676A19.891,19.891,0,0,1,682.417,84.206ZM616.824,27.9l13.669,11.545A66,66,0,0,1,616.824,27.9Zm-39.388,77.459-5.577-16.831A45.055,45.055,0,0,1,577.436,105.359Zm-62.753.419-9.48-28.6C510.383,86.606,513.64,96.041,514.683,105.778ZM492.7,137.806l.448-5.987c1.357,1.311,2.924,2.641,4.36,3.906.042.041.077.088.121.126.23.2.478.39.737.577.053.04.1.085.156.123l-.023.006c1.753,2.069,1.368,4,.472,12.625-1.493.246-2.991.47-4.487.71,0-.36,0-.687-.013-.866a24.911,24.911,0,0,0-.456-3.405,4.814,4.814,0,0,0-1.88-2.348,2.768,2.768,0,0,0-1.617-.095,7.289,7.289,0,0,1-1.38-.308c-.419-.052-.756.31-1.155.4-.38-.739-2.171-.868-2.59,0a1.864,1.864,0,0,0-2,.621c-.424.587-.077,2.069.185,2.948a7.873,7.873,0,0,0-.459,1.6c-.1.533-.448,1.94-.057,2.308a11.187,11.187,0,0,0,.943.769q-6.01.89-12.034,1.7a6.436,6.436,0,0,0-1.884-.5,7.827,7.827,0,0,0-1.637-.135c-.057-.044-.107-.083-.172-.131l.849-15.553a28.112,28.112,0,0,1,4.7-1.133,27.963,27.963,0,0,0,6.022,1.323,1.747,1.747,0,0,0,.591,1.6v.023C483.615,140.3,492.321,142.821,492.7,137.806Zm-23.108-3.7c-.119.585-.252,1.139-.4,1.666l.1-1.8Zm-1.411-.614-1,18.247a2.142,2.142,0,0,0-1.381-.364,1.85,1.85,0,0,0-1.274,1.638c-.566.054-.967.679-1.082,1.311-2.668.334-5.34.643-8.011.954-.032-.143-.064-.286-.1-.42-.01-.034-.026-.064-.038-.1a35.17,35.17,0,0,0-1.7-4.964c-.3-.613-2.144-.711-2.83-.784a11.937,11.937,0,0,0-1.228-.07l1.625-18.44C458.518,129.363,463.316,131.374,468.177,133.492Zm-14.892-27.084a55.86,55.86,0,0,1-1.947,22.089Zm-44.325,6.385a38.98,38.98,0,0,1-9.127,13.587ZM396.126,141.9l-.012,0c.008-.028.013-.058.021-.088.041-.15.077-.3.1-.445,0-.014,0-.029,0-.043a28.3,28.3,0,0,0,.573-4.168c0-.543-1.268-1.268-1.729-1.566a8.95,8.95,0,0,0-1.048-.585l4.917-7.32c11.083,4.119,10.5,12.6,21.723,17.438a37.115,37.115,0,0,0,6.177-7.025c-.407,8.327-1.006,16.466-1.336,20.185q-6.992.585-13.992,1.054C407.43,155.289,396.079,143.645,396.126,141.9Zm-71.312,2.264a1.848,1.848,0,0,0-1.726,1.152c-.922-.21-1.918,1.216-1.585,1.965-.012.009-.031.012-.042.021l-.043,0h0l-.012,0a1.153,1.153,0,0,0-.139.023l-.018,0a1.451,1.451,0,0,0-.211.076l-.048.022a1.3,1.3,0,0,0-.243.16l-.043.04a1.381,1.381,0,0,0-.246.289c-.393.623-.317.925-.625,1.246a2.736,2.736,0,0,0-.937,1.3.914.914,0,0,0-.022.093c0,.008,0,.023,0,.035a4.907,4.907,0,0,0,.645,2.772,24.83,24.83,0,0,0,2.223,2.385l-1.405,3.556c-3.555-6.127-6.835-12.246-6.738-13.724a6.851,6.851,0,0,0,.132-.851c.024-.194.042-.385.05-.571,0-.036-.006-.072-.006-.107a35.338,35.338,0,0,0-.041-5.242c-.094-.677-1.809-1.353-2.439-1.639a11.954,11.954,0,0,0-1.142-.454l7.372-16.979c7.34,1.244,11.257,4.667,15.2,8.214l-6.714,16.993A2.148,2.148,0,0,0,324.814,144.165Zm8.149-13.73.661-1.675.245.219C333.57,129.5,333.268,129.981,332.963,130.435Zm-14.591-12.648,8.761-20.178A55.883,55.883,0,0,1,318.372,117.787Zm2.672,42.728a.568.568,0,0,0,.092-.142l1.523-3.855a3.915,3.915,0,0,0,1.132.7c.017,0,.032,0,.049,0,.617.8,1.579,2.25,2.7,4.006-1.725-.042-3.447-.106-5.171-.159C321.261,160.886,321.152,160.7,321.044,160.515Zm-50.837-21.428.6,10.953C269.9,146.768,269.448,142.162,270.207,139.087ZM241.5,150.824l-.022-.006c.051-.038.1-.081.15-.119.261-.188.512-.382.743-.581.047-.04.085-.091.129-.134,1.434-1.262,3-2.589,4.351-3.9l.449,5.987c.375,5.016,9.081,2.491,12.257.9v-.023c.815-.565.613-1.831.432-3.048v-.023c3.273-.592,8.252.355,10.881,1.279l.042.768c-2.469,2.137-4.818,4.116-6.605,5.6q-12.045-1.144-24.03-2.619A5.465,5.465,0,0,1,241.5,150.824ZM234.79,91.442l-9.479,28.607C226.353,110.311,229.61,100.873,234.79,91.442Zm-48.423,28.946a19.9,19.9,0,0,1-1.531,7.673Zm-18.231-17.6-5.58,16.84A45.079,45.079,0,0,1,168.136,102.792Zm-37.008,22.8a27.886,27.886,0,0,1,.182,8.416c-.117-.031-.233-.064-.35-.094ZM63.666,97.549l-.053.018a15.355,15.355,0,0,1,1.108,2.553c-2.638-1.216-4.143-2.747-6.329-3.234l3.038-2.565A13.289,13.289,0,0,0,63.666,97.549ZM55.9,106.9c5.3-.236,6.475,3.6,11.951,3.657.07-.144.133-.3.2-.448.478,1.508.974,3.088,1.479,4.7q-7.113-2.556-14.162-5.243Zm.149-.746,1.531-7.676A19.877,19.877,0,0,1,56.046,106.149ZM116.63,47.732l12.031-10.155A65.9,65.9,0,0,1,116.63,47.732ZM49.315,102.875a1.352,1.352,0,0,0,1.854.107l5.751-4.854-2.231,11.18c-1.788-.689-3.563-1.4-5.344-2.106C49.326,105.73,49.313,104.3,49.315,102.875Z"/>
      <g>
        <g>
          <g>
            <g>
              <path class="cls-2" d="M471.044,162.294c2.508,3.514,1.259,6.427-1.672,22.584-.389,2.142-.792,4.191-1.21,6.2h25.282c-.175-14-.3-27.209.518-30C487.614,160.857,478.721,160.843,471.044,162.294Z"/>
              <path class="cls-2" d="M484.3,132.777c1.333.472,2.446,1.6,3.822,1.787,1.334.186,2.711-.021,4.656,1.32,1.822,1.257,4,6.225,3.965,8.058a74.248,74.248,0,0,1-.865,10.225c-.239,1.426-1.194,6.015-2.043,6.949-2.809,3.091-6.743,3.2-9.2,3.522-1.911.253-3.85,1.459-6.457,1.182-2.329-.245-6-2.3-8.291-4.632-2.857-2.908-1.2-10.289,1.758-16.742-2.225,1.5-5.886-1.546-5.886-1.546s-1.215-8.759,1.147-10.86c2.077-1.847,4.43-1.25,6.219-.525,1.776-2.246,6.916-.715,7.552,1.683C481.9,133.192,483.114,132.356,484.3,132.777Z"/>
              <path class="cls-2" d="M463.179,145.112c1.307-3.041,3.189-6.253,5.516-7.046,1.831-.624,6.278.939,12.185,3.232,1.689.655,1.189,2.455-.511,3.764-3.293,2.535-6.356,1.191-8.774.628,8.5,3.51,11.918,14.85,9.649,20.645a16.317,16.317,0,0,1-11.2-5.016c-2.951-3.086-6.452-6.478-8.523-9.508C460.622,150.485,462.537,146.6,463.179,145.112Z"/>
            </g>
            <g>
              <g>
                <path class="cls-2" d="M722.487,101.2c1.052,4.679-26.611,46.288-30.913,52.328L715.3,166.109c4.991-9.606,22.044-54.851,25.011-58.5A90.677,90.677,0,0,0,722.487,101.2Z"/>
                <path class="cls-2" d="M742.031,82.989c.863.787,1.351,2,2.335,2.584a6.843,6.843,0,0,1,3.119,2.5c.985,1.539,1.045,6.015.434,7.4a60.955,60.955,0,0,1-3.934,7.5c-.637,1.007-2.834,4.192-3.78,4.631-3.126,1.452-6.153.271-8.128-.269-1.534-.42-3.4-.124-5.29-1.169-1.694-.933-3.828-3.677-4.823-6.181-1.242-3.127,2.387-8.21,6.7-12.172-2.173.425-3.982-3.064-3.982-3.064s1.882-7.052,4.352-7.892c2.171-.74,3.771.468,4.9,1.592,2.071-1.139,5.491,1.672,5.206,3.7C740.069,82.534,741.262,82.288,742.031,82.989Z"/>
                <path class="cls-2" d="M722.009,85.605c1.968-1.9,4.43-3.737,6.455-3.594,1.592.113,4.474,2.726,8.233,6.363,1.075,1.04.118,2.25-1.594,2.7-3.318.874-5.218-1.13-6.877-2.334,5.338,5.392,4.307,15.117.726,18.8a13.472,13.472,0,0,1-6.91-7.4,72.408,72.408,0,0,1-3.436-9.964C718.343,88.872,721.043,86.533,722.009,85.605Z"/>
              </g>
              <g>
                <path class="cls-2" d="M646.4.57a1.939,1.939,0,1,0-2.746,2.739L750,109.434v-5.479Z"/>
                <path class="cls-2" d="M652.933,8c9.785,16.733,21.562,29.484,36.55,37.843C663.875,61,669.716,81.31,644.837,98.393c-11.161-6.269-22.623-17.081-34.374-32.242C639.676,41.178,636.3,21.313,652.933,8Z"/>
              </g>
            </g>
            <g>
              <path class="cls-2" d="M532.649,168.605c1.517,3.666,33.663,16.689,48.676,22.47H533.832c-6.057-3.808-10.69-6.576-12.062-6.962A90.708,90.708,0,0,1,532.649,168.605Z"/>
              <path class="cls-2" d="M506.164,173.745c.177,1.154.918,2.229.862,3.374a6.853,6.853,0,0,0,.356,3.98c.74,1.671,4.435,4.2,5.928,4.451a60.617,60.617,0,0,0,8.426.867c1.192.025,5.06-.044,5.949-.59,2.937-1.8,3.626-4.978,4.268-6.922.5-1.51,1.774-2.9,1.95-5.054.158-1.927-.948-5.223-2.485-7.436-1.919-2.764-8.162-2.55-13.849-1.143,1.557-1.576-.35-5.012-.35-5.012s-6.917-2.33-8.985-.736c-1.815,1.4-1.693,3.4-1.38,4.962-2.094,1.1-1.641,5.5.207,6.384C506.868,171.858,506.005,172.715,506.164,173.745Z"/>
              <path class="cls-2" d="M519.41,158.5c-2.667.594-5.562,1.627-6.561,3.394-.788,1.388-.2,5.235.751,10.378.272,1.47,1.809,1.341,3.131.164,2.561-2.283,1.942-4.973,1.856-7.021,1.543,7.43,10.215,11.944,15.264,10.994a13.472,13.472,0,0,0-2.35-9.849,72.644,72.644,0,0,0-6.4-8.372C524.16,157.254,520.718,158.213,519.41,158.5Z"/>
              <g>
                <path class="cls-2" d="M491.773,70.757a1.987,1.987,0,0,1,1.4-2.454,2.033,2.033,0,0,1,2.38,1.571l29.274,121.2h-3.991Z"/>
                <path class="cls-2" d="M493.662,70.316c9.5,18.352,14.535,36.2,14.12,54.4,26.227-14.191,40.85,2.689,68.379-9.741.271-13.574-3.242-30.028-10.379-49.235C529.2,77.511,513.7,63.093,493.662,70.316Z"/>
              </g>
            </g>
            <g>
              <path class="cls-2" d="M566.469,152.622c-.771,2.33.4,3.7,4.713,11.983,2.414,4.631,4.683,8.328,7.487,13.042H560.822c-2.8-9.376-5.868-20.11-7-21.824A62.57,62.57,0,0,1,566.469,152.622Z"/>
              <path class="cls-2" d="M554.294,138.827c-.644.481-1.06,1.279-1.774,1.615a4.7,4.7,0,0,0-2.306,1.5,8.162,8.162,0,0,0-.8,5.044,42.049,42.049,0,0,0,2.192,5.408c.37.732,1.662,3.063,2.281,3.428,2.045,1.206,4.2.6,5.589.363,1.08-.185,2.337.143,3.705-.446a9.445,9.445,0,0,0,3.723-3.914c1.062-2.059-1.084-5.788-3.775-8.794,1.461.438,2.935-1.832,2.935-1.832s-.816-4.962-2.453-5.7a3.173,3.173,0,0,0-3.465.762c-1.343-.92-3.877.777-3.818,2.187C555.671,138.647,554.87,138.4,554.294,138.827Z"/>
              <path class="cls-2" d="M567.845,141.966c-1.222-1.431-2.786-2.858-4.184-2.9-1.1-.03-3.25,1.568-6.071,3.808-.807.641-.233,1.534.911,1.959,2.215.821,3.653-.425,4.871-1.139-4.022,3.338-3.97,10.075-1.762,12.839a9.283,9.283,0,0,0,5.235-4.611,50.007,50.007,0,0,0,3.026-6.6C570.14,144.453,568.444,142.668,567.845,141.966Z"/>
            </g>
            <g>
              <path class="cls-2" d="M686,128.962c1.6,1.19,1.469,2.65,2.476,10.18.776,5.784.9,10.268,1.585,17.638l14.677-3.335c-1.394-5.9-8.75-25.644-8.823-28.278A50.94,50.94,0,0,0,686,128.962Z"/>
              <path class="cls-2" d="M687.64,114.084a9.966,9.966,0,0,0,1.935.243,3.841,3.841,0,0,1,2.238-.081,6.635,6.635,0,0,1,2.891,2.984,34.084,34.084,0,0,1,1.073,4.623,11.205,11.205,0,0,1,.089,3.349c-.795,1.76-2.513,2.365-3.549,2.859-.8.382-1.487,1.189-2.673,1.439a7.686,7.686,0,0,1-4.308-.86c-1.672-.873-1.99-4.359-1.608-7.619-.766.975-2.811.157-2.811.157s-1.78-3.683-1.039-4.944a2.578,2.578,0,0,1,2.662-1.116c.462-1.241,2.942-1.3,3.563-.333C686.639,114.609,687.055,114.067,687.64,114.084Z"/>
              <path class="cls-2" d="M680.1,122.519c.143-1.525.515-3.207,1.425-3.887.718-.534,2.9-.48,5.825-.311.836.049.872.913.309,1.73-1.089,1.584-2.628,1.429-3.772,1.524,4.238.337,7.358,4.842,7.183,7.716a7.544,7.544,0,0,1-5.64-.616,40.644,40.644,0,0,1-5.1-2.973C679.733,125.247,680.025,123.267,680.1,122.519Z"/>
            </g>
            <g>
              <path class="cls-2" d="M674.146,120.412c-.854,2.586.443,4.108,5.23,13.294,3.677,7.059,7.055,12.159,12.079,20.915l-18.983,7.8c-3.08-7.678-10.376-35.466-12.362-38.46A69.455,69.455,0,0,1,674.146,120.412Z"/>
              <path class="cls-2" d="M660.64,105.108c-.715.533-1.177,1.418-1.969,1.791a5.222,5.222,0,0,0-2.56,1.665c-.863,1.1-1.243,4.5-.882,5.6a46.5,46.5,0,0,0,2.434,6c.409.815,1.843,3.4,2.529,3.8,2.27,1.338,4.66.666,6.2.4,1.2-.2,2.592.16,4.112-.494a10.5,10.5,0,0,0,4.129-4.341c1.177-2.286-1.2-6.422-4.19-9.758,1.621.486,3.258-2.033,3.258-2.033s-.9-5.505-2.722-6.328a3.513,3.513,0,0,0-3.843.846c-1.491-1.022-4.3.862-4.236,2.426C662.166,104.907,661.277,104.631,660.64,105.108Z"/>
              <path class="cls-2" d="M675.673,108.59c-1.357-1.588-3.091-3.172-4.642-3.215-1.218-.033-3.6,1.74-6.736,4.226-.9.71-.258,1.7,1.011,2.173,2.459.911,4.053-.472,5.4-1.263-4.463,3.7-4.4,11.176-1.955,14.243a10.3,10.3,0,0,0,5.808-5.115,55.4,55.4,0,0,0,3.356-7.322C678.218,111.349,676.339,109.368,675.673,108.59Z"/>
            </g>
            <g>
              <path class="cls-2" d="M533.157,157.37c2.286,1.7,2.093,3.778,3.53,14.51.65,4.852-.113,12-.651,19.195h18.582c-2.911-13.991-7.247-36.234-7.327-39.115A72.481,72.481,0,0,0,533.157,157.37Z"/>
              <path class="cls-2" d="M535.491,136.161c.933.027,1.86.5,2.762.347a5.443,5.443,0,0,1,3.188-.116c1.4.419,3.77,3.095,4.122,4.252a48.7,48.7,0,0,1,1.531,6.591c.138.943.47,4.015.127,4.774-1.135,2.51-3.582,3.373-5.059,4.075-1.148.548-2.12,1.7-3.811,2.052a10.952,10.952,0,0,1-6.142-1.226c-2.382-1.244-2.837-6.213-2.292-10.861-1.093,1.391-4.008.223-4.008.223s-2.537-5.248-1.48-7.046a3.674,3.674,0,0,1,3.794-1.591c.66-1.77,4.2-1.851,5.08-.474C534.066,136.909,534.66,136.139,535.491,136.161Z"/>
              <path class="cls-2" d="M524.737,148.185c.205-2.173.735-4.572,2.033-5.54,1.023-.762,4.13-.684,8.3-.444,1.193.07,1.244,1.3.444,2.466-1.553,2.259-3.748,2.036-5.379,2.173,6.043.479,10.489,6.9,10.242,11a10.761,10.761,0,0,1-8.043-.877,57.916,57.916,0,0,1-7.275-4.238C524.223,152.074,524.638,149.25,524.737,148.185Z"/>
            </g>
            <g>
              <path class="cls-2" d="M608.468,142.538c1.088,2.628,28.714,13.364,32.863,14.825l-7.21,14.206c-5.7-2.954-29.423-19.077-32.107-19.832A53.749,53.749,0,0,1,608.468,142.538Z"/>
              <path class="cls-2" d="M592.757,145.587a10.868,10.868,0,0,1,.512,2,4.049,4.049,0,0,0,.211,2.36A7.029,7.029,0,0,0,597,152.59a36.2,36.2,0,0,0,5,.515,11.9,11.9,0,0,0,3.53-.351c1.743-1.068,2.151-2.952,2.532-4.1.3-.9,1.051-1.72,1.157-3a8.14,8.14,0,0,0-1.475-4.412c-1.138-1.639-4.841-1.512-8.215-.678.924-.935-.208-2.973-.208-2.973s-4.1-1.382-5.329-.437a2.729,2.729,0,0,0-.818,2.944c-1.243.65-.974,3.263.122,3.787C593.175,144.468,592.662,144.977,592.757,145.587Z"/>
              <path class="cls-2" d="M600.614,136.546c-1.582.353-3.3.966-3.892,2.014-.466.823-.12,3.1.445,6.156.162.872,1.073.795,1.857.1,1.52-1.355,1.153-2.952,1.1-4.165.915,4.407,6.059,7.085,9.055,6.522a8,8,0,0,0-1.4-5.844,43.124,43.124,0,0,0-3.8-4.966C603.433,135.805,601.391,136.374,600.614,136.546Z"/>
              <g>
                <path class="cls-2" d="M584.221,84.5a1.177,1.177,0,0,1,.829-1.455,1.207,1.207,0,0,1,1.412.932l17.955,74.336a1.179,1.179,0,0,1-.829,1.455,1.207,1.207,0,0,1-1.412-.932Z"/>
                <path class="cls-2" d="M585.342,84.234c5.636,10.886,8.622,21.473,8.374,32.267,15.558-8.418,24.232,1.6,40.562-5.777.161-8.053-1.923-17.813-6.156-29.206C606.421,88.5,597.228,79.949,585.342,84.234Z"/>
              </g>
            </g>
            <g>
              <path class="cls-2" d="M574.665,145.882c2.07,2.344,1.39,4.534.494,16.395-.687,9.112-1.944,16.024-3.286,27.536l23.563-.354c-.223-9.5-5.093-42.12-4.353-46.177A79.53,79.53,0,0,0,574.665,145.882Z"/>
              <path class="cls-2" d="M582,123.621c1,.24,1.883.965,2.888,1a5.981,5.981,0,0,1,3.454.6c1.408.767,3.347,4.182,3.462,5.507a53.522,53.522,0,0,1,.147,7.43c-.065,1.044-.408,4.422-.949,5.159-1.79,2.438-4.617,2.81-6.363,3.23-1.358.326-2.663,1.34-4.563,1.338a12.014,12.014,0,0,1-6.32-2.714c-2.277-1.879-1.637-7.322.006-12.192-1.49,1.246-4.358-.672-4.358-.672s-1.534-6.218.01-7.908c1.358-1.487,3.1-1.235,4.44-.847,1.11-1.753,4.929-1.036,5.567.644C580.294,124.1,581.106,123.407,582,123.621Z"/>
              <path class="cls-2" d="M567.705,134.1c.713-2.29,1.828-4.746,3.444-5.492,1.272-.586,4.594.2,9.021,1.411,1.266.344,1.042,1.679-.084,2.75-2.182,2.074-4.49,1.337-6.275,1.113,6.385,1.889,9.7,9.8,8.506,14.146a11.816,11.816,0,0,1-8.443-2.771,63.5,63.5,0,0,1-6.855-6.208C566.268,138.16,567.355,135.22,567.705,134.1Z"/>
            </g>
            <g>
              <path class="cls-2" d="M646.738,133.429c1.2,1.355.8,2.621.286,9.477-.4,5.266-.6,21.245-1.375,27.9l13.619-.2c-.128-5.49-3.468-36.331-3.04-38.675A45.988,45.988,0,0,0,646.738,133.429Z"/>
              <path class="cls-2" d="M650.976,120.563c.576.138,1.087.557,1.668.578a3.469,3.469,0,0,1,2,.346,6.021,6.021,0,0,1,2,3.183,30.948,30.948,0,0,1,.085,4.3,10.2,10.2,0,0,1-.549,2.982,5.656,5.656,0,0,1-3.677,1.868,9.359,9.359,0,0,1-2.638.773,6.957,6.957,0,0,1-3.653-1.569c-1.316-1.086-.946-4.232,0-7.047-.861.72-2.518-.389-2.518-.389s-.886-3.594.006-4.571a2.331,2.331,0,0,1,2.566-.488c.642-1.014,2.849-.6,3.217.372C649.992,120.84,650.462,120.439,650.976,120.563Z"/>
              <path class="cls-2" d="M642.716,126.617c.413-1.323,1.056-2.743,1.99-3.174.735-.338,2.655.119,5.215.816.731.2.6.972-.049,1.59-1.261,1.2-2.6.772-3.627.642,3.69,1.093,5.608,5.666,4.917,8.178a6.836,6.836,0,0,1-4.881-1.6,36.8,36.8,0,0,1-3.962-3.588C641.885,128.966,642.514,127.267,642.716,126.617Z"/>
            </g>
            <g>
              <path class="cls-2" d="M726.1,38.175a.9.9,0,0,1,.634-1.115.92.92,0,0,1,1.081.714l13.757,56.95a.9.9,0,0,1-.636,1.115.925.925,0,0,1-1.082-.714Z"/>
              <path class="cls-2" d="M726.957,37.974c4.318,8.341,6.605,16.451,6.416,24.721,6.511-3.523,11.448-2.833,16.627-2.4V37.93C739.9,38.83,734.054,35.416,726.957,37.974Z"/>
            </g>
            <g>
              <path class="cls-2" d="M684.481,96.343a.693.693,0,0,1,.078-.985.711.711,0,0,1,.988.143l28.241,35.2a.7.7,0,0,1-.078.987.711.711,0,0,1-.987-.144Z"/>
              <path class="cls-2" d="M685.014,95.922c5.742,4.4,9.993,9.305,12.569,15.132,6.2-8.4,13.343-5.228,20.215-13.264-1.935-4.341-5.5-9.031-10.617-14.055C697.343,92.912,690.287,90.651,685.014,95.922Z"/>
            </g>
            <g>
              <path class="cls-2" d="M642.569,136.344a.7.7,0,0,0-.631-.761.71.71,0,0,0-.724.686l-2.832,45.039a.694.694,0,0,0,.631.76.709.709,0,0,0,.724-.686Z"/>
              <path class="cls-2" d="M641.892,136.307c-2.164,6.9-2.816,13.361-1.568,19.609-9.9-3.3-13.92,3.405-24.164.79-.917-4.662-.7-10.548.59-17.6C630.077,140.943,634.545,135.032,641.892,136.307Z"/>
            </g>
            <g>
              <path class="cls-2" d="M749.522,107.107a.522.522,0,0,0-.565-.478.532.532,0,0,0-.444.6L750,120.221v-8.933Z"/>
              <path class="cls-2" d="M749.018,107.168A30.077,30.077,0,0,0,750,120.587v1.167c-7.364-.86-9.511,4.385-17.244,3.817-1.289-3.312-1.906-7.673-1.881-13.038C740.929,112.136,743.44,107.2,749.018,107.168Z"/>
            </g>
            <g>
              <path class="cls-2" d="M423.232,172.038c-.013.871,10.493,13.386,12.952,16.309l-23.677,2.807-2.447-13.823C412.966,175.26,419.654,173.624,423.232,172.038Z"/>
              <path class="cls-2" d="M403.842,167.778a13.242,13.242,0,0,1-.4,2.531,5.038,5.038,0,0,0-.92,2.792c.013,1.534,8.355,8.429,9.666,9.266l8.364-4.3a6.908,6.908,0,0,0,2-2.121,10.089,10.089,0,0,0,.492-5.747c-.49-2.426-4.77-4.1-9.021-4.814,1.511-.609,1.226-3.487,1.226-3.487s-3.992-3.593-5.853-3.12a3.388,3.388,0,0,0-2.381,2.949c-1.735.129-2.714,3.236-1.724,4.372C404.869,166.71,404.035,167.037,403.842,167.778Z"/>
              <path class="cls-2" d="M417.237,161.351c-1.974-.377-4.231-.525-5.423.377-.935.709-1.663,3.477-2.52,7.228-.246,1.073.83,1.435,2.066,1.026,2.4-.794,2.764-2.792,3.3-4.2-1.126,5.469,3.414,11.051,7.1,11.883a9.916,9.916,0,0,0,1.288-7.339,53.43,53.43,0,0,0-1.882-7.524C420.81,161.894,418.206,161.537,417.237,161.351Z"/>
              <g>
                <path class="cls-2" d="M424.182,94.017a1.46,1.46,0,0,1,1.661-1.249,1.494,1.494,0,0,1,1.148,1.755l-14.417,83.544h-2.9Z"/>
                <path class="cls-2" d="M425.587,94.271c1.061,15.17-.748,28.693-6.341,40.861,21.857-1.93,26.807,13.74,49.028,13.38,4.147-9.09,6.576-21.229,7.362-36.284C447.489,109.5,441.23,95.241,425.587,94.271Z"/>
              </g>
            </g>
          </g>
          <g>
            <g>
              <path class="cls-2" d="M24.525,105.321c-2.43,2.557-1.753,5.056-1.228,18.464.4,10.3,1.537,18.144,2.58,31.177L0,153.635v-6.512c1.87-14.611,6.689-41.5,6.122-45.4A89.865,89.865,0,0,1,24.525,105.321Z"/>
              <path class="cls-2" d="M17.171,79.925c-1.132.229-2.162,1.011-3.3,1.009a6.771,6.771,0,0,0-3.918.536c-1.618.807-3.943,4.579-4.128,6.066a60.162,60.162,0,0,0-.469,8.372c.03,1.18.278,5,.858,5.856,1.919,2.821,5.09,3.355,7.042,3.9,1.517.423,2.948,1.62,5.089,1.695,1.913.068,5.12-1.178,7.237-2.8,2.644-2.026,2.144-8.189.492-13.746,1.629,1.465,4.94-.579,4.94-.579s1.983-6.948.312-8.917c-1.47-1.732-3.441-1.518-4.971-1.136-1.18-2.021-5.514-1.369-6.3.5C19.07,80.534,18.182,79.72,17.171,79.925Z"/>
              <path class="cls-2" d="M32.853,92.319c-.71-2.609-1.866-5.424-3.658-6.332-1.41-.712-5.187.043-10.227,1.223-1.443.337-1.244,1.852-.018,3.1,2.374,2.427,5.007,1.69,7.028,1.51-7.275,1.87-11.34,10.654-10.168,15.6a13.344,13.344,0,0,0,9.632-2.778,71.96,71.96,0,0,0,7.982-6.719C34.308,96.959,33.2,93.6,32.853,92.319Z"/>
            </g>
            <g>
              <path class="cls-2" d="M302.747,178.24c-1.889,2.647-1.646,4.953-.158,12.835H280.475c-.007-7.025-.16-12.389-.646-14.05C286.177,176.8,295.071,176.788,302.747,178.24Z"/>
              <path class="cls-2" d="M289.487,148.724c-1.333.471-2.446,1.593-3.822,1.786-1.334.186-2.711-.022-4.656,1.321-1.823,1.256-4,6.224-3.964,8.059a73.9,73.9,0,0,0,.865,10.223c.239,1.425,1.193,6.014,2.043,6.95,2.808,3.09,6.742,3.2,9.2,3.521,1.911.253,3.85,1.458,6.457,1.183,2.329-.246,6-2.305,8.291-4.633,2.857-2.907,1.2-10.289-1.757-16.742,2.225,1.5,5.886-1.547,5.886-1.547s1.215-8.759-1.148-10.86c-2.076-1.845-4.43-1.25-6.218-.525-1.776-2.247-6.916-.715-7.552,1.685C291.893,149.138,290.677,148.3,289.487,148.724Z"/>
              <path class="cls-2" d="M310.612,161.059c-1.307-3.041-3.189-6.255-5.517-7.047-1.829-.623-6.277.938-12.183,3.231-1.69.657-1.19,2.456.51,3.765,3.293,2.535,6.357,1.191,8.775.627-8.5,3.511-11.918,14.851-9.65,20.647a16.328,16.328,0,0,0,11.2-5.016c2.951-3.088,6.452-6.479,8.522-9.509C313.169,166.431,311.254,162.55,310.612,161.059Z"/>
            </g>
            <g>
              <g>
                <path class="cls-2" d="M61.375,117.141c-1.052,4.679,26.611,46.287,30.913,52.328L68.562,182.055c-4.991-9.606-22.043-54.851-25.011-58.495A90.724,90.724,0,0,1,61.375,117.141Z"/>
                <path class="cls-2" d="M41.831,98.936c-.863.786-1.351,2-2.335,2.584a6.835,6.835,0,0,0-3.12,2.5c-.983,1.54-1.044,6.015-.433,7.4a60.739,60.739,0,0,0,3.934,7.5c.639,1.008,2.835,4.192,3.781,4.632,3.126,1.452,6.153.27,8.128-.27,1.534-.419,3.395-.124,5.29-1.168,1.693-.933,3.828-3.676,4.822-6.181,1.243-3.126-2.386-8.21-6.7-12.172,2.173.426,3.983-3.064,3.983-3.064S57.3,93.642,54.827,92.8c-2.171-.738-3.77.469-4.9,1.594-2.072-1.141-5.491,1.671-5.206,3.7C43.794,98.48,42.6,98.234,41.831,98.936Z"/>
                <path class="cls-2" d="M61.854,101.551c-1.969-1.895-4.431-3.735-6.455-3.593-1.592.112-4.475,2.726-8.234,6.361-1.074,1.041-.118,2.25,1.595,2.7,3.317.873,5.217-1.131,6.877-2.335-5.339,5.393-4.308,15.116-.726,18.8a13.475,13.475,0,0,0,6.91-7.4,72.507,72.507,0,0,0,3.436-9.965C65.52,104.818,62.819,102.48,61.854,101.551Z"/>
              </g>
              <g>
                <path class="cls-2" d="M137.462,16.516a1.939,1.939,0,0,1,2.747,2.738L26.5,132.729a1.939,1.939,0,1,1-2.746-2.738Z"/>
                <path class="cls-2" d="M130.93,23.949c-9.786,16.733-21.562,29.484-36.551,37.843,25.608,15.152,19.768,35.463,44.647,52.547,11.16-6.268,22.623-17.081,34.373-32.242C144.186,57.123,147.559,37.259,130.93,23.949Z"/>
              </g>
            </g>
            <g>
              <path class="cls-2" d="M251.213,184.55c-.528,1.275-4.765,3.684-10.694,6.525h15.889A64.4,64.4,0,0,0,251.213,184.55Z"/>
              <path class="cls-2" d="M277.7,189.691a7.291,7.291,0,0,1-.407,1.384H250.2a6.158,6.158,0,0,1-.243-1.279c-.158-1.927.948-5.222,2.486-7.435,1.919-2.764,8.161-2.549,13.847-1.144-1.555-1.575.352-5.012.352-5.012s6.917-2.329,8.983-.735c1.817,1.4,1.694,3.4,1.381,4.963,2.094,1.095,1.642,5.5-.207,6.383C276.994,187.8,277.858,188.661,277.7,189.691Z"/>
              <path class="cls-2" d="M264.453,174.45c2.667.594,5.562,1.627,6.561,3.394.787,1.388.2,5.235-.75,10.378-.273,1.47-1.81,1.342-3.133.163-2.561-2.281-1.942-4.973-1.855-7.021-.932,4.488-4.466,7.912-8.229,9.711H249.87a13.581,13.581,0,0,1,2.491-8.565,72.545,72.545,0,0,1,6.405-8.371C259.7,173.2,263.144,174.159,264.453,174.45Z"/>
              <g>
                <path class="cls-2" d="M292.089,86.7a1.986,1.986,0,0,0-1.4-2.454,2.032,2.032,0,0,0-2.38,1.57L262.888,191.075h3.991Z"/>
                <path class="cls-2" d="M290.2,86.262c-9.5,18.352-14.536,36.2-14.12,54.4-26.228-14.19-40.85,2.691-68.379-9.74-.272-13.574,3.241-30.027,10.378-49.235C254.664,93.457,270.16,79.038,290.2,86.262Z"/>
              </g>
            </g>
            <g>
              <path class="cls-2" d="M214.037,182c.67,2.028-.128,3.329-3.184,9.079h13.635a35.512,35.512,0,0,1,2.2-5.878A62.609,62.609,0,0,0,214.037,182Z"/>
              <path class="cls-2" d="M226.211,168.2c.644.481,1.06,1.278,1.774,1.614a4.707,4.707,0,0,1,2.306,1.5,8.163,8.163,0,0,1,.8,5.044,41.9,41.9,0,0,1-2.192,5.408c-.37.733-1.661,3.064-2.28,3.428-2.046,1.206-4.2.6-5.59.363-1.08-.185-2.337.143-3.705-.446A9.448,9.448,0,0,1,213.6,181.2c-1.061-2.06,1.085-5.789,3.776-8.8-1.46.44-2.936-1.831-2.936-1.831s.816-4.962,2.454-5.7a3.171,3.171,0,0,1,3.464.763c1.344-.921,3.876.776,3.818,2.186C224.835,168.021,225.636,167.773,226.211,168.2Z"/>
              <path class="cls-2" d="M212.661,171.341c1.222-1.432,2.786-2.859,4.183-2.9,1.1-.029,3.25,1.568,6.071,3.808.808.641.233,1.535-.91,1.959-2.215.822-3.653-.424-4.871-1.139,4.022,3.338,3.969,10.075,1.761,12.839a9.282,9.282,0,0,1-5.234-4.61,49.888,49.888,0,0,1-3.026-6.6C210.366,173.828,212.061,172.042,212.661,171.341Z"/>
            </g>
            <g>
              <path class="cls-2" d="M97.861,144.908c-1.6,1.191-1.467,2.651-2.476,10.179-.775,5.784-.9,10.27-1.585,17.64l-14.677-3.335c1.395-5.905,8.75-25.646,8.823-28.279A50.851,50.851,0,0,1,97.861,144.908Z"/>
              <path class="cls-2" d="M96.224,130.03a10.156,10.156,0,0,1-1.937.244,3.822,3.822,0,0,0-2.238-.082,6.638,6.638,0,0,0-2.89,2.984,33.937,33.937,0,0,0-1.074,4.623,11.21,11.21,0,0,0-.089,3.35c.8,1.758,2.513,2.365,3.548,2.858.806.384,1.488,1.189,2.674,1.438a7.681,7.681,0,0,0,4.309-.859c1.671-.873,1.99-4.358,1.607-7.619.767.975,2.812.156,2.812.156s1.78-3.681,1.039-4.943a2.576,2.576,0,0,0-2.662-1.115c-.463-1.243-2.943-1.3-3.564-.333C97.224,130.555,96.807,130.014,96.224,130.03Z"/>
              <path class="cls-2" d="M103.768,138.465c-.144-1.524-.515-3.207-1.427-3.887-.717-.534-2.9-.479-5.822-.31-.837.049-.873.912-.311,1.729,1.088,1.584,2.629,1.429,3.773,1.525-4.239.337-7.358,4.841-7.184,7.714a7.546,7.546,0,0,0,5.641-.614,40.508,40.508,0,0,0,5.1-2.974C104.129,141.193,103.837,139.212,103.768,138.465Z"/>
            </g>
            <g>
              <path class="cls-2" d="M104.681,156.92c.854,2.586-.443,4.107-5.229,13.294-3.67,7.044-7.041,12.139-12.049,20.861h21.6c3.479-11.206,8.177-28.293,9.71-30.6A69.287,69.287,0,0,0,104.681,156.92Z"/>
              <path class="cls-2" d="M118.188,141.615c.715.534,1.176,1.418,1.969,1.791a5.232,5.232,0,0,1,2.558,1.665c.864,1.1,1.243,4.5.882,5.6a46.633,46.633,0,0,1-2.432,6c-.41.815-1.844,3.4-2.53,3.805-2.269,1.338-4.66.665-6.2.4-1.2-.2-2.592.158-4.111-.494a10.489,10.489,0,0,1-4.13-4.342c-1.177-2.286,1.2-6.424,4.189-9.759-1.62.487-3.258-2.032-3.258-2.032s.906-5.505,2.722-6.328a3.518,3.518,0,0,1,3.845.846c1.49-1.022,4.3.861,4.235,2.427C116.661,141.414,117.55,141.139,118.188,141.615Z"/>
              <path class="cls-2" d="M103.154,145.1c1.356-1.588,3.091-3.173,4.641-3.214,1.219-.033,3.607,1.739,6.737,4.225.9.71.258,1.7-1.012,2.172-2.457.912-4.052-.471-5.4-1.262,4.462,3.7,4.4,11.175,1.954,14.243a10.3,10.3,0,0,1-5.808-5.115,55.487,55.487,0,0,1-3.357-7.322C100.609,147.858,102.489,145.876,103.154,145.1Z"/>
            </g>
            <g>
              <path class="cls-2" d="M250.705,173.317c-2.286,1.7-2.092,3.777-3.529,14.509a30.126,30.126,0,0,0-.236,3.249H232.465c2.135-10.867,4.054-21.261,4.106-23.169A72.44,72.44,0,0,1,250.705,173.317Z"/>
              <path class="cls-2" d="M248.371,152.108c-.933.026-1.859.5-2.761.346a5.449,5.449,0,0,0-3.19-.116c-1.4.419-3.768,3.095-4.121,4.253a48.656,48.656,0,0,0-1.53,6.591c-.14.942-.471,4.014-.127,4.773,1.134,2.509,3.582,3.373,5.059,4.076,1.147.546,2.12,1.7,3.811,2.052a10.957,10.957,0,0,0,6.142-1.227c2.382-1.245,2.837-6.213,2.291-10.861,1.093,1.391,4.008.224,4.008.224s2.537-5.25,1.482-7.047a3.678,3.678,0,0,0-3.8-1.591c-.659-1.77-4.194-1.85-5.08-.474C249.8,152.855,249.2,152.084,248.371,152.108Z"/>
              <path class="cls-2" d="M259.124,164.131c-.2-2.174-.733-4.571-2.032-5.541-1.022-.761-4.13-.684-8.3-.442-1.192.069-1.244,1.3-.443,2.465,1.552,2.258,3.747,2.037,5.379,2.173-6.042.48-10.49,6.9-10.242,11a10.763,10.763,0,0,0,8.042-.877,57.931,57.931,0,0,0,7.276-4.238C259.64,168.021,259.224,165.2,259.124,164.131Z"/>
            </g>
            <g>
              <path class="cls-2" d="M172.038,171.912c-1.088,2.628-28.714,13.364-32.864,14.825l2.2,4.338h20.839c7.459-4.806,14.847-9.561,16.276-9.963A53.858,53.858,0,0,0,172.038,171.912Z"/>
              <path class="cls-2" d="M187.749,174.962a10.681,10.681,0,0,0-.512,2,4.042,4.042,0,0,1-.212,2.36,7.026,7.026,0,0,1-3.515,2.641,36.077,36.077,0,0,1-5,.515,11.923,11.923,0,0,1-3.529-.35c-1.743-1.069-2.152-2.953-2.532-4.106-.3-.9-1.053-1.72-1.158-3a8.144,8.144,0,0,1,1.475-4.411c1.138-1.639,4.841-1.512,8.215-.678-.923-.935.208-2.973.208-2.973s4.1-1.382,5.329-.436a2.729,2.729,0,0,1,.819,2.943c1.242.65.973,3.263-.123,3.787C187.331,173.842,187.843,174.351,187.749,174.962Z"/>
              <path class="cls-2" d="M179.891,165.921c1.582.352,3.3.965,3.893,2.013.465.823.119,3.1-.446,6.155-.162.873-1.073.8-1.858.1-1.519-1.354-1.151-2.951-1.1-4.164-.916,4.406-6.061,7.086-9.055,6.522a8,8,0,0,1,1.394-5.844,43.014,43.014,0,0,1,3.8-4.966C177.073,165.18,179.115,165.748,179.891,165.921Z"/>
              <g>
                <path class="cls-2" d="M196.285,113.869a1.177,1.177,0,0,0-.829-1.454,1.206,1.206,0,0,0-1.413.932l-17.955,74.335a1.181,1.181,0,0,0,.83,1.456,1.208,1.208,0,0,0,1.412-.932Z"/>
                <path class="cls-2" d="M195.165,113.608c-5.638,10.887-8.624,21.473-8.376,32.267-15.558-8.418-24.232,1.6-40.562-5.777-.161-8.053,1.923-17.813,6.156-29.206C174.084,117.876,183.277,109.323,195.165,113.608Z"/>
              </g>
            </g>
            <g>
              <path class="cls-2" d="M209.2,161.828c-2.072,2.344-1.391,4.534-.5,16.4.343,4.55.828,8.551,1.4,12.851H189.711c1.46-12.958,3.575-29.075,3.068-31.847A79.6,79.6,0,0,1,209.2,161.828Z"/>
              <path class="cls-2" d="M201.867,139.567c-.995.241-1.883.965-2.888,1a6,6,0,0,0-3.453.6c-1.408.768-3.347,4.183-3.463,5.506a53.429,53.429,0,0,0-.146,7.431c.065,1.045.407,4.421.949,5.16,1.79,2.437,4.616,2.809,6.363,3.229,1.357.326,2.664,1.34,4.561,1.338a12.029,12.029,0,0,0,6.322-2.714c2.278-1.879,1.637-7.322-.006-12.192,1.491,1.246,4.357-.672,4.357-.672s1.534-6.218-.01-7.909c-1.357-1.486-3.1-1.234-4.44-.846-1.11-1.752-4.928-1.036-5.567.645C203.569,140.046,202.756,139.354,201.867,139.567Z"/>
              <path class="cls-2" d="M216.157,150.043c-.713-2.289-1.827-4.745-3.445-5.491-1.271-.587-4.592.2-9.019,1.411-1.267.345-1.042,1.68.084,2.75,2.181,2.074,4.489,1.337,6.274,1.112-6.385,1.89-9.7,9.8-8.506,14.148a11.829,11.829,0,0,0,8.443-2.772,63.606,63.606,0,0,0,6.855-6.208C217.6,154.107,216.506,151.166,216.157,150.043Z"/>
            </g>
            <g>
              <path class="cls-2" d="M137.124,149.375c-1.2,1.355-.8,2.622-.286,9.477.4,5.266.6,21.245,1.375,27.9l-13.619-.2c.13-5.488,3.468-36.33,3.04-38.674A45.977,45.977,0,0,1,137.124,149.375Z"/>
              <path class="cls-2" d="M132.887,136.509c-.576.139-1.088.558-1.669.577a3.482,3.482,0,0,0-2,.348,6.01,6.01,0,0,0-2,3.182,30.789,30.789,0,0,0-.085,4.295,10.152,10.152,0,0,0,.548,2.983,5.656,5.656,0,0,0,3.678,1.867,9.341,9.341,0,0,0,2.637.773,6.959,6.959,0,0,0,3.653-1.569c1.317-1.086.947-4.231,0-7.047.861.721,2.518-.388,2.518-.388s.887-3.594,0-4.572a2.336,2.336,0,0,0-2.566-.489c-.642-1.013-2.849-.6-3.219.373C133.871,136.786,133.4,136.385,132.887,136.509Z"/>
              <path class="cls-2" d="M141.146,142.564c-.412-1.323-1.056-2.743-1.99-3.174-.735-.339-2.655.118-5.214.815-.732.2-.6.971.049,1.59,1.26,1.2,2.594.772,3.626.643-3.69,1.092-5.608,5.665-4.916,8.176a6.836,6.836,0,0,0,4.88-1.6,36.692,36.692,0,0,0,3.962-3.588C141.977,144.913,141.349,143.213,141.146,142.564Z"/>
            </g>
            <g>
              <path class="cls-2" d="M57.765,54.121a.9.9,0,0,0-.636-1.116.925.925,0,0,0-1.082.714L42.291,110.67a.9.9,0,0,0,.636,1.115.923.923,0,0,0,1.081-.714Z"/>
              <path class="cls-2" d="M56.906,53.92c-4.319,8.341-6.606,16.451-6.417,24.721-11.919-6.449-18.564,1.222-31.075-4.427-.124-6.169,1.473-13.647,4.716-22.375C40.756,57.191,47.8,50.638,56.906,53.92Z"/>
            </g>
            <g>
              <path class="cls-2" d="M99.382,112.289a.7.7,0,0,0-.078-.985.711.711,0,0,0-.988.142l-28.242,35.2a.7.7,0,0,0,.078.986.712.712,0,0,0,.988-.144Z"/>
              <path class="cls-2" d="M98.849,111.867c-5.743,4.4-9.994,9.306-12.57,15.133-6.2-8.4-13.342-5.228-20.214-13.264,1.934-4.34,5.5-9.031,10.616-14.053C86.519,108.858,93.575,106.6,98.849,111.867Z"/>
            </g>
            <g>
              <path class="cls-2" d="M141.293,152.29a.7.7,0,0,1,.631-.762.713.713,0,0,1,.725.687l2.443,38.86h-1.36Z"/>
              <path class="cls-2" d="M141.971,152.252c2.163,6.9,2.815,13.362,1.567,19.61,9.9-3.3,13.92,3.407,24.165.791.917-4.664.7-10.548-.59-17.6C153.786,156.89,149.318,150.979,141.971,152.252Z"/>
            </g>
            <g>
              <path class="cls-2" d="M220.032,138.979a.521.521,0,0,1,.565-.478.532.532,0,0,1,.443.6L217.2,172.634a.519.519,0,0,1-.565.476.53.53,0,0,1-.443-.6Z"/>
              <path class="cls-2" d="M220.536,139.04a29.255,29.255,0,0,1-1.425,14.644c7.725-1.128,9.8,4.339,17.686,3.76,1.29-3.313,1.907-7.673,1.882-13.038C228.625,144.008,226.113,139.068,220.536,139.04Z"/>
            </g>
            <g>
              <path class="cls-2" d="M34.341,123.053a.52.52,0,0,1,.564-.478.531.531,0,0,1,.444.6l-3.838,33.531a.52.52,0,0,1-.565.478.532.532,0,0,1-.443-.6Z"/>
              <path class="cls-2" d="M34.845,123.114a29.255,29.255,0,0,1-1.425,14.644c7.725-1.128,9.8,4.338,17.687,3.76,1.288-3.313,1.906-7.674,1.88-13.038C42.934,128.082,40.422,123.143,34.845,123.114Z"/>
            </g>
            <g>
              <path class="cls-2" d="M374.059,191.075c.006-.14.013-.223.013-.223s3.992-3.592,5.854-3.119a3.388,3.388,0,0,1,2.381,2.949,1.684,1.684,0,0,1,.937.393Z"/>
              <path class="cls-2" d="M372.08,190.306c1.975-.377,4.232-.525,5.423.376a1.8,1.8,0,0,1,.365.393h-8.89A15.325,15.325,0,0,1,372.08,190.306Z"/>
              <g>
                <path class="cls-2" d="M365.136,122.972a1.461,1.461,0,0,0-1.661-1.249,1.494,1.494,0,0,0-1.149,1.755l11.665,67.6h2.9Z"/>
                <path class="cls-2" d="M363.731,123.225c-1.062,15.17.748,28.693,6.34,40.862-21.857-1.93-26.806,13.74-49.028,13.379-4.146-9.089-6.575-21.228-7.361-36.283C341.829,138.457,348.087,124.194,363.731,123.225Z"/>
              </g>
            </g>
            <g>
              <path class="cls-2" d="M328.671,179.163l-2.038-16.282c-4.218,2.463-14.111,6.1-17.616,3.107l2.122,13.342C312.266,186.416,324.344,181.8,328.671,179.163Z"/>
              <path class="cls-2" d="M325.167,177.038c.258,1.316,3.551.353,3.473,2.122,1.133-.891.688-2.688.282-4.414L326.873,160.5a4.281,4.281,0,0,0-3.031-.568C323.28,162.286,324.726,171.335,325.167,177.038Z"/>
              <path class="cls-2" d="M344.677,174.631l.094.671c-5.186-1.41-17.166-2.43-19.6,1.736l-1.56-14.781c-.829-7.851,12.448-6.412,18.674-4.835C341.236,162.178,342.723,169.861,344.677,174.631Z"/>
              <path class="cls-2" d="M348.363,191.075l-4.669-33.745a.81.81,0,0,0-1.6.222l4.638,33.523Z"/>
            </g>
            <g>
              <path class="cls-2" d="M316.8,186.109a10.557,10.557,0,0,1-1.924.6,3.964,3.964,0,0,0-2.289.326A6.863,6.863,0,0,0,310.2,190.6c-.015.133-.033.294-.053.479h15.03c.268-1.284.581-3.42-.089-4.2a2.66,2.66,0,0,0-2.909-.648c-.7-1.178-3.228-.784-3.683.312C317.914,186.459,317.392,185.985,316.8,186.109Z"/>
              <path class="cls-2" d="M325.162,191.075a3.323,3.323,0,0,0-1.31-1.462c-.827-.413-3.033.042-5.976.748a.67.67,0,0,0-.586.714Z"/>
            </g>
          </g>
        </g>
        <path class="cls-2" d="M605.277,157.865q-15.674,3.517-31.782,6.654-1.893.368-3.789.728-3.92.745-7.859,1.464-7.951,1.45-15.977,2.782l-1.664.276q-1.91.314-3.823.619-10.446,1.671-21.707,3.116c-.407.054-.816.105-1.226.157l-1,.127q-10.278,1.293-21.154,2.4l-.784.079q-8,.809-16.291,1.513-3.893.333-7.843.642-4.221.332-8.5.636-6.546.465-13.236.872-10.887.662-22.12,1.165-10.058.45-20.355.774-10.485.33-21.186.528-9.9.181-19.961.25-10.572.071-21.282.017-10.226-.053-20.547-.221-11.192-.182-22.459-.5-11.1-.315-22.24-.763-2.428-.1-4.856-.2l-1.139-.05q-2.316-.1-4.63-.206-7.165-.33-14.325-.714l-.1-.007c-.5-.026-1.006-.054-1.509-.081q-4.457-.243-8.906-.508-.132-.009-.264-.015-7.3-.435-14.583-.93-2.4-.162-4.8-.332-11.226-.792-22.358-1.723-1.037-.086-2.07-.175-2.189-.184-4.373-.377-2.861-.25-5.711-.509-5.247-.478-10.463-.988c-.472-.046-.946-.091-1.417-.138q-4.29-.424-8.552-.866l-.673-.072q-17.955-1.876-35.379-4.134c-13.109-1.7-25.943-3.561-38.42-5.586-15.9-2.579-31.226-5.422-45.8-8.53C31.073,151.4,15.022,147.392.268,143.023c-.09-.028-.179-.053-.268-.08v54.426H750v-81c-9.922,3.435-20.383,6.936-31.311,10.443-13.171,4.226-27.022,8.462-41.429,12.6q-14.417,4.14-29.536,8.115-4.662,1.224-9.379,2.422Q622.126,154.071,605.277,157.865Z"/>
      </g>
    </g>
  </g>
</svg>
